<?xml version="1.0" encoding="UTF-8"?>
<svg width="1200pt" height="1200pt" version="1.1" viewBox="0 0 1200 1200" xmlns="http://www.w3.org/2000/svg">
 <path d="m941.09 248.63c-27.73 21.145-56.27 39.035-100.8 6.3008l0.51563 2.3516c-32.699-71.398-83.879-113.28-116.86-130.19-51.504-26.414-64.742-38.293-124.16-38.293-59.449 0-72.66 11.879-124.16 38.305-32.664 16.738-83.258 57.961-116 128.17l0.097656-0.33594c-44.508 32.734-73.094 14.832-100.8-6.3008-27.734-21.133-142.71-104.36-258.91-70.02 13.223 235.15 274.77 231.18 293.24 217.94 16.066-11.473 35.125-6.3008 34.848-0.63672-0.17969 3.7695-0.43359 7.3672-0.43359 11.219 0 166.44 72.672 343.44 97.754 421.34 25.117 77.953-21.109 92.484-21.109 187.6 0 95.113 195.48 95.113 195.48 95.113s195.49 0 195.49-95.113c0-95.113-46.246-109.64-21.145-187.6 25.129-77.902 97.777-254.9 97.777-421.34 0-3.7422-0.44531-7.2461-0.44531-10.922 0-21.289 18.254-11.832 35.27 0.33594 18.516 13.242 280.05 17.215 293.27-217.94-116.21-34.344-231.14 48.875-258.91 70.008zm-554.76 202.11c-16.777 0-30.383-17.172-30.383-38.316s13.609-38.305 30.383-38.305c16.766 0 30.371 17.172 30.371 38.305 0 21.16-13.605 38.316-30.371 38.316zm84.07 602.85c-23.039 0-41.746-21.707-41.746-48.469 0-26.762 18.73-48.469 41.746-48.469 23.051 0 41.723 21.707 41.723 48.469-0.019532 26.758-18.668 48.469-41.723 48.469zm253.16 0c-23.062 0-41.723-21.707-41.723-48.469 0-26.762 18.66-48.469 41.723-48.469 23.039 0 41.746 21.707 41.746 48.469 0.015625 26.758-18.703 48.469-41.746 48.469zm26.762-797.87c-16.547 19.945-28.992 42.66-34.031 68.281-11.113 56.797-8.0156 113-33.793 166.56-27.66 57.445-62.902 102.24-62.062 169.41 0.83984 69.047 27.371 139.8 74.855 190.25 6.8398 7.2852 13.824 14.41 20.785 21.613 3 3.1211 5.9766 6.2148 8.9766 9.3242 10.223 10.801 20.34 21.684 30.168 32.832 4.8008 5.4375 9.2148 11.16 13.848 16.691 1.7773 2.1602 6.3242 5.3398 6.7422 8.207 0.23828 1.2227-0.46875 2.3398-1.5469 3.0703-1.2461 0.79297-2.9023 1.0547-4.2617 0.30078-3.793-2.0898-6.3242-7.4023-9.2773-10.523-8.3867-8.7461-18.516-16.895-28.453-23.746-16.176-11.16-35.258-19.105-53.699-25.715-22.668-8.0898-47.508-11.484-71.543-11.484-19.402 0-40.285 2.4609-59.137 6.9609-27.984 6.7422-57.469 19.668-81.73 35.27-4.7266 3.0469-9.2266 5.8555-13.477 9.6836-3.6484 3.2773-7.7891 8.5312-12.77 9.793-3.707 0.9375-6.1445-1.0312-5.9648-4.8711 0.13281-4.3086 3.8984-7.7383 6.7695-10.523 9.1094-8.832 17.797-18.07 25.957-27.816 13.234-15.887 28.5-30.121 41.746-45.961 43.441-51.816 68.27-115.33 69.145-183.32 0.85156-67.199-34.414-111.98-62.102-169.43-25.789-53.555-22.703-109.75-33.816-166.56-5.7461-29.426-21.312-54.793-41.352-76.645-9.8633-10.754-29.051-21.59-29.195-37.488-0.17969-26.258 31.273-31.547 49.668-35.988 4.2461-1.0195 8.5781-1.9922 12.742-3.4688 11.879-4.2461 103.8-20.496 134.28-20.496 30.469 0 89.605 10.906 108.24 20.496 18.961 9.7695 70.105 4.8008 73.848 34.754 2.7305 21.121-28.16 36.84-39.559 50.543zm66.613 195.02c-16.777 0-30.371-17.172-30.371-38.316s13.598-38.305 30.371-38.305c16.777 0 30.395 17.172 30.395 38.305 0 21.16-13.609 38.316-30.395 38.316z" fill="#010101"/>
</svg>
